# xmcd
#
# Track frame offsets:
#	150
#	25901
#	46829
#	63566
#	99632
#	124037
#	140104
#	169676
#	184991
#	205466
#	220900
#	240879
#	251586
#	276119
#	291786
#	304708
#	333178
#
# Disc length: 4713 seconds
#
# Revision: 1
# Processed by: cddbd v1.5.2PL0 Copyright (c) Steve Scherf et al.
# Submitted via: audiograbber 1.83.01
#
DISCID=fe126711
DTITLE=Paul van Dyk - In Between
DYEAR=2007
DGENRE=Trance
TTITLE0=Haunted
TTITLE1=White Lies
TTITLE2=Sabotage
TTITLE3=Complicated
TTITLE4=Get Back
TTITLE5=Far Away
TTITLE6=Another Sunday
TTITLE7=Talk In Grey
TTITLE8=In Circles
TTITLE9=In Between
TTITLE10=Stormy Skies
TTITLE11=Détournement
TTITLE12=New York City
TTITLE13=Castaway
TTITLE14=La Dolce Vita
TTITLE15=Let Go
TTITLE16=Fall With Me
EXTD=
EXTT0=
EXTT1=
EXTT2=
EXTT3=
EXTT4=
EXTT5=
EXTT6=
EXTT7=
EXTT8=
EXTT9=
EXTT10=
EXTT11=
EXTT12=
EXTT13=
EXTT14=
EXTT15=
EXTT16=
PLAYORDER=
